<svg width="24" height="24" viewBox="0 0 24 24" fill="none" xmlns="http://www.w3.org/2000/svg">
    <rect width="24" height="24" rx="4" fill="#F0F0F0"/>
    <circle cx="11" cy="11" r="7" stroke="#4A4A4A" stroke-width="2"/>
    <path d="M16 16L20 20" stroke="#4A4A4A" stroke-width="2" stroke-linecap="round"/>
    <!-- { -->
    <path d="M9.5 7.5C8.5 7.5 8 8 8 9L8 10C8 10.5 7.5 11 6.5 11C7.5 11 8 11.5 8 12L8 13C8 14 8.5 14.5 9.5 14.5" stroke="#4A4A4A" stroke-width="1.4" stroke-linecap="round" stroke-linejoin="round" fill="none"/>
    <!-- } -->
    <path d="M12.5 7.5C13.5 7.5 14 8 14 9L14 10C14 10.5 14.5 11 15.5 11C14.5 11 14 11.5 14 12L14 13C14 14 13.5 14.5 12.5 14.5" stroke="#4A4A4A" stroke-width="1.4" stroke-linecap="round" stroke-linejoin="round" fill="none"/>
</svg>